<svg width="33" height="33" viewBox="0 0 33 33" fill="none" xmlns="http://www.w3.org/2000/svg">
<circle cx="16.5" cy="16.5" r="16.5" fill="#79C0AA"/>
<path d="M12.066 24.192C11.1487 24.192 10.3273 23.968 9.60201 23.52C8.87667 23.0613 8.30601 22.4 7.89001 21.536C7.47401 20.672 7.26601 19.6267 7.26601 18.4C7.26601 17.1733 7.47401 16.128 7.89001 15.264C8.30601 14.4 8.87667 13.744 9.60201 13.296C10.3273 12.8373 11.1487 12.608 12.066 12.608C12.994 12.608 13.8153 12.8373 14.53 13.296C15.2553 13.744 15.826 14.4 16.242 15.264C16.658 16.128 16.866 17.1733 16.866 18.4C16.866 19.6267 16.658 20.672 16.242 21.536C15.826 22.4 15.2553 23.0613 14.53 23.52C13.8153 23.968 12.994 24.192 12.066 24.192ZM12.066 22C12.5033 22 12.882 21.8773 13.202 21.632C13.5327 21.3867 13.7887 20.9973 13.97 20.464C14.162 19.9307 14.258 19.2427 14.258 18.4C14.258 17.5573 14.162 16.8693 13.97 16.336C13.7887 15.8027 13.5327 15.4133 13.202 15.168C12.882 14.9227 12.5033 14.8 12.066 14.8C11.6393 14.8 11.2607 14.9227 10.93 15.168C10.61 15.4133 10.354 15.8027 10.162 16.336C9.98067 16.8693 9.89001 17.5573 9.89001 18.4C9.89001 19.2427 9.98067 19.9307 10.162 20.464C10.354 20.9973 10.61 21.3867 10.93 21.632C11.2607 21.8773 11.6393 22 12.066 22ZM20.7354 24V9.92L22.2754 11.46H17.6554V8.6H24.2994V24H20.7354Z" fill="white"/>
</svg>
