<svg width="45" height="41" viewBox="0 0 45 41" fill="none" xmlns="http://www.w3.org/2000/svg">
<path d="M43.157 2.56033L43.157 2.56035C42.6793 3.71354 42.5998 4.68629 42.7448 5.61791C42.8884 6.53968 43.2517 7.41679 43.6481 8.37364L43.6521 8.38338C43.6521 8.38339 43.6521 8.38339 43.6521 8.3834C44.5202 10.4795 45.5784 13.0405 44.1468 16.4961L44.1468 16.4961C42.7159 19.9513 40.1567 21.0141 38.0608 21.8824L38.0509 21.8865C37.0941 22.2829 36.2171 22.6462 35.4639 23.1964C34.7026 23.7526 34.071 24.4965 33.5933 25.6496C33.1155 26.8028 33.0359 27.7756 33.1809 28.7072C33.3245 29.629 33.6878 30.5061 34.0842 31.4629L34.0882 31.4727C34.9563 33.5688 36.0145 36.13 34.5829 39.5854C34.3442 40.1613 33.7874 40.5094 33.2001 40.5094C33.0097 40.5094 32.8159 40.4728 32.6283 40.3951C31.8649 40.0789 31.5023 39.2038 31.8186 38.4405L31.6801 38.383L31.8186 38.4405C32.2964 37.2873 32.3759 36.3146 32.2308 35.383C32.0874 34.4615 31.7242 33.5847 31.3281 32.6282L31.3237 32.6176L31.1851 32.675L31.3237 32.6176C30.4554 30.5213 29.3973 27.9601 30.829 24.5045L30.6905 24.4471L30.829 24.5045C32.2604 21.049 34.8196 19.9863 36.9157 19.1179L36.9249 19.1141C37.8819 18.7178 38.759 18.3545 39.5122 17.8041C40.2734 17.248 40.9048 16.504 41.3823 15.351C41.8601 14.198 41.9397 13.2254 41.7947 12.2938C41.6512 11.3722 41.288 10.4953 40.8918 9.53865L40.8876 9.52858L40.7491 9.58598L40.8876 9.52857C40.0193 7.43225 38.9609 4.87103 40.3927 1.41518L40.3927 1.41517C40.7089 0.651796 41.5844 0.289378 42.3473 0.605715L42.3474 0.605744C43.1109 0.921909 43.4734 1.79696 43.157 2.56033Z" fill="#79C0AA" stroke="white" stroke-width="0.3"/>
<path d="M10.1415 18.3374L10.1415 18.3373C9.55723 17.7529 8.61017 17.7529 8.02592 18.3371L8.0259 18.3371C6.92113 19.4417 6.3132 20.9093 6.3132 22.4715C6.3132 24.0336 6.92114 25.5015 8.0257 26.606C9.33568 27.916 11.0768 28.6372 12.9293 28.6372C14.782 28.637 16.5229 27.916 17.8329 26.6058L17.9389 26.7119L17.8329 26.6058C21.0666 23.3721 21.0666 18.1098 17.8329 14.8761L17.9389 14.77L17.8329 14.8761C15.9452 12.9882 13.436 11.9488 10.7662 11.9488C8.09636 11.9488 5.58711 12.9882 3.69947 14.8759L3.69947 14.8759C1.41042 17.1647 0.15 20.2077 0.15 23.4448C0.15 26.6822 1.41042 29.7248 3.69946 32.0134L3.69948 32.0134C6.49002 34.8044 10.1996 36.3409 14.146 36.3409C18.0927 36.3409 21.8023 34.8041 24.5928 32.0134L24.6989 32.1194L24.5928 32.0134C25.1771 31.4291 25.1771 30.4818 24.5926 29.8976L24.5926 29.8976C24.0088 29.3136 23.0615 29.3137 22.477 29.898C20.252 32.1233 17.2929 33.349 14.146 33.349C10.9994 33.349 8.04032 32.1233 5.81506 29.8978C4.09151 28.1745 3.14207 25.8823 3.14207 23.4448C3.14207 21.0073 4.0915 18.715 5.81528 16.9917C7.13741 15.6695 8.89622 14.9409 10.7662 14.9409C12.6361 14.9409 14.3949 15.6695 15.7171 16.9917C17.7845 19.059 17.7845 22.4226 15.7171 24.49L10.1415 18.3374ZM10.1415 18.3374C10.7257 18.9214 10.7256 19.8686 10.1413 20.4529C9.60243 20.9918 9.30527 21.7092 9.30527 22.4715C9.30527 23.2338 9.60243 23.9512 10.1415 24.4902L10.1415 18.3374ZM12.9293 25.6451C13.9819 25.6451 14.9726 25.2347 15.7171 24.49L10.1415 24.4902C10.886 25.235 11.8764 25.6451 12.9293 25.6451Z" fill="#79C0AA" stroke="white" stroke-width="0.3"/>
<path d="M29.7418 5.3282C29.7418 6.72001 28.6135 7.84829 27.2217 7.84829C25.8299 7.84829 24.7016 6.72001 24.7016 5.3282C24.7016 3.93639 25.8299 2.80811 27.2217 2.80811C28.6135 2.80811 29.7418 3.93639 29.7418 5.3282Z" fill="#006F63" stroke="white" stroke-width="0.3"/>
<path d="M25.249 11.6022C25.249 12.699 24.3599 13.5881 23.2631 13.5881C22.1663 13.5881 21.2772 12.699 21.2772 11.6022C21.2772 10.5055 22.1663 9.61634 23.2631 9.61634C24.3599 9.61634 25.249 10.5055 25.249 11.6022Z" fill="#006F63" stroke="white" stroke-width="0.3"/>
<path d="M31.1805 8.54771C32.8668 8.54771 34.2342 9.91501 34.2342 11.6016C34.2342 13.2892 32.8668 14.6561 31.1805 14.6561C29.4929 14.6561 28.1265 13.289 28.1265 11.6016C28.1265 9.915 29.4931 8.54771 31.1805 8.54771Z" fill="#006F63" stroke="white" stroke-width="0.3"/>
</svg>
