<svg width="60" height="45" viewBox="0 0 60 45" fill="none" xmlns="http://www.w3.org/2000/svg">
<path d="M3.84379 22.8312V24.9062C3.84533 26.1904 4.35615 27.4216 5.26419 28.3296C6.17224 29.2376 7.40337 29.7485 8.68754 29.75V36.6523C7.77257 36.8866 6.97466 37.447 6.44376 38.2281C5.91287 39.0093 5.68555 39.9574 5.80453 40.8944C5.92351 41.8314 6.3806 42.6926 7.08988 43.3163C7.79916 43.94 8.71181 44.2831 9.65629 44.2812H52.2813C53.2258 44.2831 54.1384 43.94 54.8477 43.3163C55.557 42.6926 56.0141 41.8314 56.133 40.8944C56.252 39.9574 56.0247 39.0093 55.4938 38.2281C54.9629 37.447 54.165 36.8866 53.25 36.6523V33.5998C54.0835 34.2409 55.1047 34.5902 56.1563 34.5938H58.0938C58.2593 34.5947 58.4224 34.5531 58.5673 34.4731C58.7123 34.3931 58.8343 34.2772 58.9217 34.1367C59.0091 33.9961 59.0591 33.8354 59.0668 33.67C59.0745 33.5047 59.0397 33.3401 58.9657 33.192L57.125 29.5214V23.9375C57.1235 22.6533 56.6127 21.4222 55.7046 20.5141C54.7966 19.6061 53.5655 19.0953 52.2813 19.0938H49.375V18.125C49.375 14.2025 46.8679 11.6683 42.6907 11.3438L23.2188 9.40625H13.5313C12.2471 9.40779 11.016 9.9186 10.1079 10.8266C9.1999 11.7347 8.68908 12.9658 8.68754 14.25V18.125H8.54998C8.38058 17.4639 8.03926 16.8595 7.56068 16.373C7.08211 15.8865 6.48332 15.5353 5.82511 15.355C5.16691 15.1748 4.47274 15.172 3.81308 15.3468C3.15342 15.5216 2.55177 15.8679 2.06921 16.3504C1.58666 16.833 1.24039 17.4346 1.06557 18.0943C0.89075 18.7539 0.893599 19.4481 1.07383 20.1063C1.25406 20.7645 1.60525 21.3633 2.09175 21.8419C2.57825 22.3205 3.18272 22.6618 3.84379 22.8312ZM49.375 21.0312H52.2813C53.0521 21.0312 53.7913 21.3374 54.3363 21.8825C54.8813 22.4275 55.1875 23.1667 55.1875 23.9375V29.75C55.1859 29.8999 55.2191 30.0481 55.2844 30.183L56.5264 32.6562H56.1563C55.3855 32.6562 54.6463 32.3501 54.1013 31.805C53.5562 31.26 53.25 30.5208 53.25 29.75V23.9375C53.25 23.6806 53.148 23.4342 52.9663 23.2525C52.7846 23.0708 52.5382 22.9688 52.2813 22.9688H49.375V21.0312ZM48.4063 28.7812C48.6632 28.7812 48.9096 28.6792 49.0913 28.4975C49.273 28.3158 49.375 28.0694 49.375 27.8125V24.9062H51.3125V36.5312H37.75V38.4688H52.2813C52.7951 38.4688 53.288 38.6729 53.6513 39.0362C54.0147 39.3996 54.2188 39.8924 54.2188 40.4062C54.2188 40.9201 54.0147 41.4129 53.6513 41.7763C53.288 42.1396 52.7951 42.3438 52.2813 42.3438H9.65629C9.14243 42.3438 8.64962 42.1396 8.28627 41.7763C7.92292 41.4129 7.71879 40.9201 7.71879 40.4062C7.71879 39.8924 7.92292 39.3996 8.28627 39.0362C8.64962 38.6729 9.14243 38.4688 9.65629 38.4688H26.125V36.5312H10.625V29.75H13.5313C13.6544 29.7501 13.7764 29.7268 13.8907 29.6812L21.7376 26.5415C21.904 26.6078 22.0749 26.6622 22.2491 26.7042V29.75C22.2491 30.7777 22.6573 31.7633 23.384 32.49C24.1107 33.2167 25.0964 33.625 26.1241 33.625C27.1518 33.625 28.1374 33.2167 28.8641 32.49C29.5908 31.7633 29.9991 30.7777 29.9991 29.75V24.9062H35.9792C35.8149 25.3722 35.7716 25.8721 35.8532 26.3594C35.9857 27.0476 36.356 27.6674 36.8994 28.1102C37.4427 28.5529 38.1245 28.7905 38.8254 28.7812H48.4063ZM39.6875 12.9906V14.25C39.6875 14.5069 39.5855 14.7533 39.4038 14.935C39.2221 15.1167 38.9757 15.2188 38.7188 15.2188C38.4619 15.2188 38.2155 15.1167 38.0338 14.935C37.8521 14.7533 37.75 14.5069 37.75 14.25C37.7477 13.7236 37.6009 13.2079 37.3257 12.7591L39.6875 12.9906ZM30 12.0219L32.7058 12.2922C32.2125 12.8249 31.9381 13.524 31.9375 14.25V18.125C31.9375 18.3819 31.8355 18.6283 31.6538 18.81C31.4721 18.9917 31.2257 19.0938 30.9688 19.0938C30.7119 19.0938 30.4655 18.9917 30.2838 18.81C30.1021 18.6283 30 18.3819 30 18.125V12.0219ZM27.1258 21.9196L26.2713 11.6508L28.0625 11.833V18.125C28.0625 18.8958 28.3687 19.635 28.9138 20.18C29.4588 20.7251 30.198 21.0312 30.9688 21.0312C31.7396 21.0312 32.4788 20.7251 33.0238 20.18C33.5688 19.635 33.875 18.8958 33.875 18.125V14.25C33.875 13.9931 33.9771 13.7467 34.1588 13.565C34.3405 13.3833 34.5869 13.2812 34.8438 13.2812C35.1007 13.2812 35.3471 13.3833 35.5288 13.565C35.7105 13.7467 35.8125 13.9931 35.8125 14.25C35.8125 15.0208 36.1187 15.76 36.6638 16.305C37.2088 16.8501 37.948 17.1562 38.7188 17.1562C39.4896 17.1562 40.2288 16.8501 40.7738 16.305C41.3188 15.76 41.625 15.0208 41.625 14.25V13.1892L42.5202 13.2783C44.3608 13.4198 47.4375 14.2355 47.4375 18.1221V26.8408H38.8254C38.5838 26.85 38.3465 26.7755 38.1536 26.6298C37.9607 26.4842 37.8239 26.2764 37.7665 26.0416C37.7422 25.9026 37.7486 25.7599 37.7853 25.6236C37.8219 25.4873 37.8879 25.3606 37.9786 25.2525C38.0693 25.1443 38.1825 25.0573 38.3104 24.9975C38.4383 24.9377 38.5776 24.9065 38.7188 24.9062H44.5313V22.9688H41.0864C40.5313 22.3119 39.8183 21.1804 40.1099 20.4839C40.2455 20.1594 41.036 19.0938 45.5 19.0938V17.1562C41.3896 17.1562 39.0404 18.0029 38.3187 19.7438C38.1384 20.2775 38.0819 20.8452 38.1536 21.404C38.2252 21.9627 38.4232 22.4978 38.7324 22.9688H29.0313C28.7744 22.9688 28.528 23.0708 28.3463 23.2525C28.1646 23.4342 28.0625 23.6806 28.0625 23.9375V29.75C28.0625 30.2639 27.8584 30.7567 27.4951 31.12C27.1317 31.4834 26.6389 31.6875 26.125 31.6875C25.6112 31.6875 25.1184 31.4834 24.755 31.12C24.3917 30.7567 24.1875 30.2639 24.1875 29.75V26.7265C24.9285 26.5588 25.5985 26.1635 26.1037 25.596C26.5232 25.0896 26.831 24.5004 27.0072 23.8669C27.1833 23.2334 27.2237 22.5698 27.1258 21.9196ZM21.3133 22.0804L22.2084 11.3438H23.1694L24.3106 11.4581L25.1999 22.1201C25.2668 22.5039 25.2526 22.8974 25.1581 23.2753C25.0637 23.6532 24.8911 24.0072 24.6516 24.3143C24.4769 24.5096 24.2614 24.6639 24.0202 24.7662C23.7791 24.8685 23.5183 24.9163 23.2566 24.9062C22.995 24.9164 22.7343 24.8686 22.4933 24.7663C22.2523 24.6639 22.0369 24.5096 21.8625 24.3143C21.6194 24.0014 21.4448 23.6407 21.3502 23.2558C21.2556 22.8709 21.243 22.4705 21.3133 22.0804ZM8.54998 20.0625H9.65629C9.91322 20.0625 10.1596 19.9604 10.3413 19.7788C10.523 19.5971 10.625 19.3507 10.625 19.0938V14.25C10.625 13.4792 10.9312 12.74 11.4763 12.195C12.0213 11.6499 12.7605 11.3438 13.5313 11.3438H20.2651L19.3874 21.8799C19.2298 23.0073 19.4743 24.1543 20.0781 25.1194L13.3453 27.8125H10.7132C10.9312 26.3972 11.71 23.9375 14.5 23.9375V22C10.4788 22 9.04598 25.3906 8.74954 27.8125H8.68754C7.91676 27.8125 7.17754 27.5063 6.63251 26.9613C6.08748 26.4163 5.78129 25.677 5.78129 24.9062V22.8312C6.44706 22.6571 7.05446 22.3089 7.54106 21.8223C8.02766 21.3357 8.37589 20.7283 8.54998 20.0625ZM4.81254 17.1562C5.19574 17.1562 5.57034 17.2699 5.88896 17.4828C6.20758 17.6957 6.45591 17.9983 6.60256 18.3523C6.7492 18.7063 6.78757 19.0959 6.71281 19.4717C6.63805 19.8476 6.45353 20.1928 6.18256 20.4638C5.9116 20.7347 5.56637 20.9193 5.19053 20.994C4.81469 21.0688 4.42512 21.0304 4.07109 20.8838C3.71706 20.7371 3.41446 20.4888 3.20157 20.1702C2.98867 19.8515 2.87504 19.477 2.87504 19.0938C2.87504 18.5799 3.07917 18.0871 3.44252 17.7237C3.80587 17.3604 4.29868 17.1562 4.81254 17.1562Z" fill="#79C0AA"/>
<path d="M17.4063 18.1249V16.1874C16.5869 16.1183 15.795 15.8584 15.0939 15.4287C14.3928 14.9989 13.8019 14.4111 13.3685 13.7122L11.7565 14.7876C12.3671 15.7511 13.1975 16.5561 14.1797 17.1363C15.1619 17.7164 16.2677 18.0553 17.4063 18.1249Z" fill="#006F63"/>
<path d="M15.4688 18.125H13.5312V20.0625H15.4688V18.125Z" fill="#006F63"/>
<path d="M35.8126 36.5312H33.8751V38.4688H35.8126V36.5312Z" fill="#006F63"/>
<path d="M35.8125 1.65616C35.163 1.6754 34.5186 1.53608 33.9351 1.25025C33.1038 0.879173 32.2036 0.687384 31.2933 0.687384C30.3829 0.687384 29.4828 0.879173 28.6515 1.25025C28.0611 1.51781 27.4203 1.65622 26.7721 1.65622C26.1239 1.65622 25.4832 1.51781 24.8928 1.25025C24.0675 0.859945 23.1627 0.667238 22.25 0.687409V2.62491C22.9001 2.60559 23.5452 2.74491 24.1294 3.03082C24.961 3.40188 25.8615 3.59366 26.7721 3.59366C27.6828 3.59366 28.5832 3.40188 29.4149 3.03082C30.0048 2.76332 30.6451 2.62494 31.2928 2.62494C31.9405 2.62494 32.5808 2.76332 33.1707 3.03082C33.9957 3.42091 34.9002 3.61361 35.8125 3.59366V1.65616Z" fill="#006F63"/>
<path d="M29.3568 4.56241C28.4441 4.54224 27.5393 4.73494 26.714 5.12525C26.1236 5.39281 25.4828 5.53122 24.8346 5.53122C24.1864 5.53122 23.5457 5.39281 22.9553 5.12525C22.13 4.73494 21.2252 4.54224 20.3125 4.56241V6.49991C20.9626 6.48059 21.6077 6.61991 22.1919 6.90582C23.0171 7.29613 23.922 7.48883 24.8346 7.46866C25.7473 7.48883 26.6521 7.29613 27.4774 6.90582C28.0673 6.63832 28.7076 6.49994 29.3553 6.49994C30.003 6.49994 30.6433 6.63832 31.2332 6.90582C32.0582 7.29591 32.9627 7.48861 33.875 7.46866V5.53116C33.2255 5.5504 32.5811 5.41108 31.9976 5.12525C31.173 4.73504 30.2688 4.54233 29.3568 4.56241Z" fill="#006F63"/>
</svg>
